<svg width="40" height="40" viewBox="0 0 40 40" fill="none" xmlns="http://www.w3.org/2000/svg">
<path fill-rule="evenodd" clip-rule="evenodd" d="M6.79998 7.8187C5.6051 7.92242 4.5831 8.08518 3.23998 8.38554C2.78898 8.48638 2.32998 8.60258 2.21998 8.64374C1.92258 8.75502 1.62798 9.03342 1.4717 9.35086L1.33998 9.61842L1.32966 19.6379C1.31822 30.7655 1.29702 29.8822 1.58578 30.3079C1.8507 30.6985 2.06418 30.8091 2.95998 31.0199C4.19494 31.3103 5.51818 31.5524 6.55998 31.6784C8.57298 31.922 11.1416 31.8781 12.4726 31.5773C13.3195 31.386 14.3607 30.9383 15.1 30.4477C16.7115 29.3782 17.8103 27.7867 18.1814 25.9846C18.308 25.3698 18.3503 24.5041 18.2823 23.9213C18.0199 21.6743 16.641 19.8105 14.3489 18.6048L14.1208 18.4848L14.3069 18.3325C14.5584 18.1265 15.0012 17.6099 15.2605 17.2201C15.7082 16.547 16.0249 15.7509 16.1439 14.9999C16.2255 14.4846 16.2039 13.4267 16.1019 12.9401C15.8531 11.7539 15.2152 10.606 14.3321 9.75574C13.1993 8.66498 11.796 8.02366 10.14 7.83974C9.50482 7.76922 7.51442 7.7567 6.79998 7.8187ZM24.892 7.83458C24.4688 7.98082 24.1593 8.28506 23.9975 8.71398C23.8768 9.03406 23.9008 9.49826 24.0543 9.81202C24.1936 10.0969 24.5283 10.4054 24.8301 10.5273L25.06 10.6201L29.7158 10.6314C32.5143 10.6381 34.4813 10.6275 34.6466 10.6045C34.9987 10.5557 35.2509 10.4325 35.4925 10.1913C35.7746 9.90942 35.896 9.61874 35.8981 9.2201C35.899 9.0441 35.8772 8.8257 35.8496 8.73478C35.7396 8.37242 35.3342 7.96806 34.9465 7.8341C34.7527 7.76714 34.4422 7.7627 29.92 7.7627C25.3855 7.7627 25.0877 7.76698 24.892 7.83458ZM7.11998 10.6687C6.5117 10.7067 5.20886 10.8977 4.37998 11.0703L4.21998 11.1037L4.20974 14.3149L4.1995 17.5262L6.80974 17.5086C9.66622 17.4893 9.67742 17.4885 10.4955 17.2363C11.346 16.9741 11.952 16.6201 12.5059 16.0621C12.8171 15.7485 12.8987 15.6371 13.052 15.3167C13.1511 15.1096 13.256 14.8411 13.285 14.7201C13.3647 14.3877 13.3449 13.6825 13.2454 13.3086C12.9996 12.3851 12.2897 11.5773 11.3057 11.1016C10.7733 10.8441 10.3591 10.7383 9.66418 10.6819C9.19206 10.6437 7.6485 10.6356 7.11998 10.6687ZM28.98 14.3441C27.8524 14.457 27.2428 14.5741 26.4842 14.8234C23.9439 15.6582 22.1811 17.5527 21.5 20.1801C21.2499 21.1449 21.16 21.9114 21.16 23.0801C21.16 25.2886 21.614 26.9864 22.5944 28.4437C23.8519 30.3129 25.8421 31.4447 28.44 31.7679C28.6883 31.7987 29.2852 31.8201 29.9 31.8201C31.0053 31.8201 31.4472 31.7822 32.2784 31.6159C33.3687 31.3979 34.6141 30.8761 35.44 30.2915C35.9727 29.9144 36.8297 29.0525 36.9825 28.7401C37.0892 28.5222 37.0998 28.4633 37.0983 28.1001C37.0969 27.7605 37.0819 27.6699 36.9996 27.5001C36.8691 27.2313 36.5691 26.9387 36.2894 26.8076C36.0935 26.7158 36.0072 26.7001 35.6991 26.7001C35.1989 26.7001 34.9178 26.8365 34.534 27.2653C33.6841 28.2149 32.5488 28.7422 30.9659 28.9224C30.3363 28.994 28.8999 28.9517 28.3098 28.8442C27.4806 28.6931 26.6916 28.387 26.1 27.9871C25.7911 27.7783 25.221 27.208 25.0134 26.9001C24.5945 26.2789 24.3217 25.5769 24.1394 24.6508L24.1139 24.5215L30.8469 24.5108L37.58 24.5001L37.8244 24.3871C38.1303 24.2458 38.4022 23.9725 38.548 23.6601C38.657 23.4266 38.6599 23.4023 38.6568 22.7601C38.6418 19.6355 37.4128 17.1579 35.14 15.6703C34.1595 15.0285 33 14.6226 31.56 14.4169C31.1591 14.3596 29.3379 14.3082 28.98 14.3441ZM28.78 17.2444C26.3486 17.537 24.8108 18.8029 24.266 20.9601C24.2133 21.1691 24.158 21.4076 24.1432 21.4901L24.1163 21.6401H29.913H35.7096L35.6352 21.2771C35.4852 20.5457 35.1776 19.7961 34.7983 19.2377C34.7089 19.106 34.4763 18.8412 34.2813 18.6492C33.5689 17.9477 32.6834 17.5294 31.42 17.2977C30.9905 17.2189 29.2788 17.1843 28.78 17.2444ZM4.19998 24.3574C4.19998 28.1298 4.2039 28.3559 4.26998 28.3754C4.4199 28.4197 5.6465 28.6488 6.13998 28.7246C7.13494 28.8775 7.7471 28.9267 8.91998 28.9484C11.1501 28.9897 12.1123 28.8368 13.16 28.275C13.9842 27.833 14.7596 27.0213 15.1227 26.2206C15.3569 25.7039 15.4201 25.3673 15.4191 24.6401C15.4183 24.0355 15.4091 23.9514 15.3101 23.6376C14.8196 22.0835 13.2214 20.9012 11.0727 20.5029C10.4673 20.3907 9.6111 20.3618 6.86998 20.3609L4.19998 20.3601V24.3574Z" fill="white"/>
</svg>
