<svg width="1920" height="8" viewBox="0 0 1920 8" fill="none" xmlns="http://www.w3.org/2000/svg">
<path d="M-13.5 5.02579C-13.5 5.02579 -7.6084 -0.0981846 -3.24324 0.0682877C0.805064 0.222676 2.07592 4.8024 6.12162 5.02579C10.644 5.27549 12.2969 -0.00890663 16.8243 0.0682877C21.1915 0.14275 22.7174 4.81729 27.0811 5.02579C31.9279 5.25737 32.8784 0.0682876 38.6757 0.0682877C44.473 0.0682878 43.706 4.7942 47.5946 5.02579C51.9561 5.28553 53.4903 0.337251 57.8514 0.0682877C62.8579 -0.24049 64.8817 5.24917 69.8919 5.02579C74.4162 4.82406 76.0722 -0.181421 80.5946 0.0682877C84.6403 0.291675 85.9209 4.67829 89.9595 5.02579C94.7963 5.44197 96.7031 0.135529 101.554 0.0682877C106.568 -0.00121151 108.588 5.33456 113.595 5.02579C117.956 4.75682 119.484 0.0682877 123.851 0.0682877C128.219 0.0682877 129.74 5.02579 134.108 5.02579C138.476 5.02579 140.001 0.276785 144.365 0.0682877C149.212 -0.163295 151.117 5.34624 155.959 5.02579C160.161 4.74779 161.573 0.404492 165.77 0.0682877C170.772 -0.332278 172.81 5.42635 177.811 5.02579C182.009 4.68958 183.414 0.145482 187.622 0.0682877C191.989 -0.0118255 193.513 4.88198 197.878 5.02579C202.566 5.18017 204.339 0.202769 209.027 0.0682876C214.04 -0.0755166 216.111 5.87198 221.068 5.02579C224.612 4.42062 225.544 0.624281 229.095 0.0682877C233.899 -0.683885 235.838 5.02579 240.689 5.02579C245.541 5.02579 247.447 -0.347893 252.284 0.0682877C256.322 0.415784 257.606 4.73818 261.649 5.02579C266.328 5.35873 268.11 0.202769 272.797 0.0682877C277.81 -0.0755165 279.837 5.42635 284.838 5.02579C289.036 4.68958 290.442 0.217213 294.649 0.0682877C299.174 -0.0919388 300.824 4.95388 305.351 5.02579C310.04 5.10025 311.813 -0.0861009 316.5 0.0682877C320.866 0.212092 322.389 5.02579 326.757 5.02579C331.124 5.02579 332.646 0.14275 337.014 0.0682877C341.541 -0.00890663 343.189 4.95388 347.716 5.02579C352.405 5.10025 354.178 -0.0861009 358.865 0.0682877C363.231 0.212092 364.771 4.59723 369.122 5.02579C374.607 5.56615 377.014 -0.472073 382.5 0.0682877C386.851 0.496845 388.391 4.88198 392.757 5.02579C397.444 5.18017 399.221 -0.172052 403.905 0.0682877C408.11 0.283994 409.512 4.81008 413.716 5.02579C418.4 5.26613 420.176 -0.00617475 424.865 0.0682877C429.392 0.14019 431.04 5.02579 435.568 5.02579C440.096 5.02579 441.744 0.207286 446.27 0.0682877C451.12 -0.0806372 453.014 5.09769 457.865 5.02579C462.554 4.95629 464.328 0.263634 469.014 0.0682877C474.188 -0.147419 476.595 8.9235 481.5 5.02579C481.5 5.02579 487.392 -0.0981846 491.757 0.0682877C495.805 0.222676 497.076 4.8024 501.122 5.02579C505.644 5.27549 507.297 -0.00890663 511.824 0.0682877C516.192 0.14275 517.717 4.81729 522.081 5.02579C526.928 5.25737 527.878 0.0682876 533.676 0.0682877C539.473 0.0682878 538.706 4.7942 542.595 5.02579C546.956 5.28553 548.49 0.337251 552.851 0.0682877C557.858 -0.24049 559.882 5.24917 564.892 5.02579C569.416 4.82406 571.072 -0.181421 575.595 0.0682877C579.64 0.291675 580.921 4.67829 584.959 5.02579C589.796 5.44197 591.703 0.135529 596.554 0.0682877C601.568 -0.00121151 603.588 5.33456 608.595 5.02579C612.956 4.75682 614.484 0.0682877 618.851 0.0682877C623.219 0.0682877 624.74 5.02579 629.108 5.02579C633.476 5.02579 635.001 0.276785 639.365 0.0682877C644.212 -0.163295 646.117 5.34624 650.959 5.02579C655.161 4.74779 656.573 0.404492 660.77 0.0682877C665.772 -0.332278 667.81 5.42635 672.811 5.02579C677.009 4.68958 678.414 0.145482 682.622 0.0682877C686.989 -0.0118255 688.513 4.88198 692.878 5.02579C697.566 5.18017 699.339 0.202769 704.027 0.0682876C709.04 -0.0755166 711.111 5.87198 716.068 5.02579C719.612 4.42062 720.544 0.624281 724.095 0.0682877C728.899 -0.683885 730.838 5.02579 735.689 5.02579C740.541 5.02579 742.447 -0.347893 747.284 0.0682877C751.322 0.415784 752.606 4.73818 756.649 5.02579C761.328 5.35873 763.11 0.202769 767.797 0.0682877C772.81 -0.0755165 774.837 5.42635 779.838 5.02579C784.036 4.68958 785.442 0.217213 789.649 0.0682877C794.174 -0.0919388 795.824 4.95388 800.351 5.02579C805.04 5.10025 806.813 -0.0861009 811.5 0.0682877C815.866 0.212092 817.389 5.02579 821.757 5.02579C826.124 5.02579 827.646 0.14275 832.014 0.0682877C836.541 -0.00890663 838.189 4.95388 842.716 5.02579C847.405 5.10025 849.178 -0.0861009 853.865 0.0682877C858.231 0.212092 859.771 4.59723 864.122 5.02579C869.607 5.56615 872.014 -0.472073 877.5 0.0682877C881.851 0.496845 883.391 4.88198 887.757 5.02579C892.444 5.18017 894.221 -0.172052 898.905 0.0682877C903.11 0.283994 904.512 4.81008 908.716 5.02579C913.4 5.26613 915.176 -0.00617475 919.865 0.0682877C924.392 0.14019 926.04 5.02579 930.568 5.02579C935.096 5.02579 936.744 0.207286 941.27 0.0682877C946.12 -0.0806372 948.014 5.09769 952.865 5.02579C957.554 4.95629 964.014 0.0682877 964.014 0.0682877M955.986 5.02579C955.986 5.02579 961.878 -0.0981846 966.243 0.0682877C970.292 0.222676 971.562 4.8024 975.608 5.02579C980.131 5.27549 981.783 -0.00890663 986.311 0.0682877C990.678 0.14275 992.204 4.81729 996.568 5.02579C1001.41 5.25737 1002.36 0.0682876 1008.16 0.0682877C1013.96 0.0682878 1013.19 4.7942 1017.08 5.02579C1021.44 5.28553 1022.98 0.337251 1027.34 0.0682877C1032.34 -0.24049 1034.37 5.24917 1039.38 5.02579C1043.9 4.82406 1045.56 -0.181421 1050.08 0.0682877C1054.13 0.291675 1055.41 4.67829 1059.45 5.02579C1064.28 5.44197 1066.19 0.135529 1071.04 0.0682877C1076.05 -0.00121151 1078.07 5.33456 1083.08 5.02579C1087.44 4.75682 1088.97 0.0682877 1093.34 0.0682877C1097.71 0.0682877 1099.23 5.02579 1103.59 5.02579C1107.96 5.02579 1109.49 0.276785 1113.85 0.0682877C1118.7 -0.163295 1120.6 5.34624 1125.45 5.02579C1129.65 4.74779 1131.06 0.404492 1135.26 0.0682877C1140.26 -0.332278 1142.3 5.42635 1147.3 5.02579C1151.5 4.68958 1152.9 0.145482 1157.11 0.0682877C1161.48 -0.0118255 1163 4.88198 1167.36 5.02579C1172.05 5.18017 1173.83 0.202769 1178.51 0.0682876C1183.53 -0.0755166 1185.6 5.87198 1190.55 5.02579C1194.1 4.42062 1195.03 0.624281 1198.58 0.0682877C1203.38 -0.683885 1205.32 5.02579 1210.18 5.02579C1215.03 5.02579 1216.93 -0.347893 1221.77 0.0682877C1225.81 0.415784 1227.09 4.73818 1231.14 5.02579C1235.81 5.35873 1237.6 0.202769 1242.28 0.0682877C1247.3 -0.0755165 1249.32 5.42635 1254.32 5.02579C1258.52 4.68958 1259.93 0.217213 1264.14 0.0682877C1268.66 -0.0919388 1270.31 4.95388 1274.84 5.02579C1279.53 5.10025 1281.3 -0.0861009 1285.99 0.0682877C1290.35 0.212092 1291.88 5.02579 1296.24 5.02579C1300.61 5.02579 1302.13 0.14275 1306.5 0.0682877C1311.03 -0.00890663 1312.68 4.95388 1317.2 5.02579C1321.89 5.10025 1323.66 -0.0861009 1328.35 0.0682877C1332.72 0.212092 1334.26 4.59723 1338.61 5.02579C1344.09 5.56615 1346.5 -0.472073 1351.99 0.0682877C1356.34 0.496845 1357.88 4.88198 1362.24 5.02579C1366.93 5.18017 1368.71 -0.172052 1373.39 0.0682877C1377.6 0.283994 1379 4.81008 1383.2 5.02579C1387.89 5.26613 1389.66 -0.00617475 1394.35 0.0682877C1398.88 0.14019 1400.53 5.02579 1405.05 5.02579C1409.58 5.02579 1411.23 0.207286 1415.76 0.0682877C1420.61 -0.0806372 1422.5 5.09769 1427.35 5.02579C1432.04 4.95629 1433.81 0.263634 1438.5 0.0682877C1443.67 -0.147419 1446.08 8.9235 1450.99 5.02579C1450.99 5.02579 1456.88 -0.0981846 1461.24 0.0682877C1465.29 0.222676 1466.56 4.8024 1470.61 5.02579C1475.13 5.27549 1476.78 -0.00890663 1481.31 0.0682877C1485.68 0.14275 1487.2 4.81729 1491.57 5.02579C1496.41 5.25737 1497.36 0.0682876 1503.16 0.0682877C1508.96 0.0682878 1508.19 4.7942 1512.08 5.02579C1516.44 5.28553 1517.98 0.337251 1522.34 0.0682877C1527.34 -0.24049 1529.37 5.24917 1534.38 5.02579C1538.9 4.82406 1540.56 -0.181421 1545.08 0.0682877C1549.13 0.291675 1550.41 4.67829 1554.45 5.02579C1559.28 5.44197 1561.19 0.135529 1566.04 0.0682877C1571.05 -0.00121151 1573.07 5.33456 1578.08 5.02579C1582.44 4.75682 1583.97 0.0682877 1588.34 0.0682877C1592.71 0.0682877 1594.23 5.02579 1598.59 5.02579C1602.96 5.02579 1604.49 0.276785 1608.85 0.0682877C1613.7 -0.163295 1615.6 5.34624 1620.45 5.02579C1624.65 4.74779 1626.06 0.404492 1630.26 0.0682877C1635.26 -0.332278 1637.3 5.42635 1642.3 5.02579C1646.5 4.68958 1647.9 0.145482 1652.11 0.0682877C1656.48 -0.0118255 1658 4.88198 1662.36 5.02579C1667.05 5.18017 1668.83 0.202769 1673.51 0.0682876C1678.53 -0.0755166 1680.6 5.87198 1685.55 5.02579C1689.1 4.42062 1690.03 0.624281 1693.58 0.0682877C1698.38 -0.683885 1700.32 5.02579 1705.18 5.02579C1710.03 5.02579 1711.93 -0.347893 1716.77 0.0682877C1720.81 0.415784 1722.09 4.73818 1726.14 5.02579C1730.81 5.35873 1732.6 0.202769 1737.28 0.0682877C1742.3 -0.0755165 1744.32 5.42635 1749.32 5.02579C1753.52 4.68958 1754.93 0.217213 1759.14 0.0682877C1763.66 -0.0919388 1765.31 4.95388 1769.84 5.02579C1774.53 5.10025 1776.3 -0.0861009 1780.99 0.0682877C1785.35 0.212092 1786.88 5.02579 1791.24 5.02579C1795.61 5.02579 1797.13 0.14275 1801.5 0.0682877C1806.03 -0.00890663 1807.68 4.95388 1812.2 5.02579C1816.89 5.10025 1818.66 -0.0861009 1823.35 0.0682877C1827.72 0.212092 1829.26 4.59723 1833.61 5.02579C1839.09 5.56615 1841.5 -0.472073 1846.99 0.0682877C1851.34 0.496845 1852.88 4.88198 1857.24 5.02579C1861.93 5.18017 1863.71 -0.172052 1868.39 0.0682877C1872.6 0.283994 1874 4.81008 1878.2 5.02579C1882.89 5.26613 1884.66 -0.00617475 1889.35 0.0682877C1893.88 0.14019 1895.53 5.02579 1900.05 5.02579C1904.58 5.02579 1906.23 0.207286 1910.76 0.0682877C1915.61 -0.0806372 1917.5 5.09769 1922.35 5.02579C1927.04 4.95629 1933.5 0.0682877 1933.5 0.0682877" stroke="#DFAF37" stroke-width="3"/>
</svg>
