<svg width="40" height="40" viewBox="0 0 40 40" fill="none" xmlns="http://www.w3.org/2000/svg">
<path fill-rule="evenodd" clip-rule="evenodd" d="M18.4601 1.36296C16.2628 1.49248 14.3778 1.82844 12.6001 2.40728C8.0848 3.87756 4.782 6.86036 2.96516 11.1086C1.596 14.3101 1.06524 18.3154 1.44232 22.6004C1.705 25.585 2.56664 28.4694 3.85204 30.6668C5.21452 32.996 7.00376 34.7856 9.33152 36.1472C12.7642 38.1551 17.513 39.0163 22.6201 38.557C25.6266 38.2866 28.463 37.4374 30.6686 36.1472C33.7769 34.329 35.9995 31.6702 37.3119 28.2004C38.4886 25.0892 38.9298 21.1419 38.5397 17.2165C37.9308 11.0891 35.246 6.5312 30.6686 3.85364C27.8129 2.18316 24.0466 1.301 19.8801 1.32672C19.3851 1.3298 18.7461 1.34608 18.4601 1.36296ZM18.6001 4.22388C18.5011 4.23196 18.1681 4.25848 17.8601 4.2828C17.2763 4.32892 16.1244 4.48112 15.6854 4.5702L15.4306 4.62188L16.0054 5.13796C17.2041 6.21436 18.8402 7.9208 19.9194 9.2204C20.5796 10.0153 21.8191 11.6676 22.2426 12.3174L22.3052 12.4134L22.7826 12.1984C23.7756 11.7515 25.284 10.9533 26.2801 10.3475C27.712 9.47668 29.4334 8.21364 30.3254 7.37936C30.555 7.16452 30.5869 7.2242 30.0401 6.84568C28.5434 5.8096 26.5888 5.02444 24.4601 4.6042C23.0314 4.32216 22.1136 4.23828 20.2801 4.22228C19.4551 4.21508 18.6991 4.2158 18.6001 4.22388ZM11.5345 5.93544C10.2081 6.59384 9.24356 7.27928 8.26124 8.26156C6.88284 9.64 5.90192 11.2544 5.20604 13.2899C4.95668 14.0192 4.62004 15.2905 4.65328 15.3772C4.69508 15.486 7.08492 15.5702 8.66008 15.5183C12.1814 15.4023 15.3275 14.8568 18.7201 13.774C19.1711 13.6301 19.5468 13.506 19.5549 13.4982C19.5937 13.4613 18.4078 11.8965 17.6686 11.009C16.2453 9.30024 14.4298 7.50256 12.6342 6.024C12.378 5.813 12.1595 5.6404 12.1487 5.6404C12.1378 5.6404 11.8615 5.77316 11.5345 5.93544ZM32.3401 9.4266C30.5033 11.1347 27.6323 13.0321 24.7701 14.4296C24.2586 14.6794 23.8401 14.8878 23.8401 14.8929C23.8401 14.898 23.9584 15.1177 24.103 15.3812C24.7382 16.5387 25.5687 18.3023 26.0487 19.513L26.2916 20.1255L26.4358 20.1032C26.6968 20.0628 27.807 19.9634 28.5401 19.9148C29.4674 19.8532 32.3587 19.853 33.3401 19.9145C34.1342 19.9642 35.4421 20.0676 35.6764 20.0991L35.8127 20.1174L35.7872 19.1889C35.6936 15.7761 34.9224 12.8337 33.5126 10.51C33.2786 10.1243 32.8662 9.53232 32.6918 9.33192L32.5801 9.2034L32.3401 9.4266ZM20.0801 16.3416C16.665 17.5022 13.1651 18.168 9.4478 18.3642C8.4016 18.4194 5.80516 18.3929 4.88988 18.3176C4.55424 18.2901 4.26624 18.2809 4.24988 18.2973C4.19696 18.3502 4.21592 21.5771 4.27248 22.1404C4.40636 23.4745 4.595 24.5772 4.8626 25.5902C5.03312 26.2358 5.38816 27.2788 5.60556 27.7728C5.79148 28.1953 6.29164 29.1889 6.36804 29.2876C6.41476 29.348 6.471 29.3119 6.92008 28.9339C8.94832 27.2266 11.1391 25.6896 13.3401 24.43C14.2183 23.9273 16.0768 22.9982 16.9201 22.6403C18.6779 21.8941 20.5792 21.2604 22.2601 20.8605C22.7001 20.7558 23.1349 20.65 23.2264 20.6253L23.3927 20.5804L23.0844 19.8604C22.3902 18.2389 21.2394 15.9934 21.1083 16.0045C21.0818 16.0067 20.6191 16.1584 20.0801 16.3416ZM29.0001 22.7622C28.2807 22.8055 27.2401 22.8912 27.2401 22.9071C27.2401 22.9146 27.3135 23.1861 27.4033 23.5105C28.2738 26.6566 28.7224 29.7751 28.7352 32.7702C28.7379 33.4026 28.75 33.9201 28.7621 33.9202C28.7742 33.9203 28.9832 33.8061 29.2265 33.6664C32.7037 31.6701 34.8734 28.1898 35.5625 23.503C35.6044 23.2184 35.6344 22.9819 35.6293 22.9775C35.609 22.9596 33.5334 22.798 32.843 22.7604C32.0142 22.7154 29.7607 22.7164 29.0001 22.7622ZM23.6401 23.4782C18.254 24.706 13.5564 27.1199 8.79284 31.1075C8.46984 31.3779 8.19548 31.6155 8.18316 31.6354C8.1558 31.6797 8.88584 32.3481 9.38008 32.7314C11.3081 34.2268 13.8182 35.2036 16.7401 35.5957C17.9196 35.754 18.3861 35.7804 20.0001 35.7804C21.871 35.7804 22.6991 35.7156 24.1401 35.4564C24.7609 35.3447 25.6722 35.1354 25.7506 35.0866C25.8649 35.0152 25.9186 32.8559 25.8397 31.5004C25.7088 29.2498 25.3812 27.1552 24.817 24.9604C24.5665 23.9858 24.3667 23.3186 24.327 23.3241C24.3122 23.3261 24.0031 23.3955 23.6401 23.4782Z" fill="white"/>
</svg>
