<svg width="40" height="40" viewBox="0 0 40 40" fill="none" xmlns="http://www.w3.org/2000/svg">
<path fill-rule="evenodd" clip-rule="evenodd" d="M18 2.02387C17.879 2.03155 17.411 2.05711 16.96 2.08063C15.1733 2.17391 11.6541 2.48911 10.6857 2.64259C6.74971 3.26639 3.51963 6.33367 2.70611 10.22C2.52543 11.0833 2.25103 13.9557 2.07183 16.86C2.00239 17.9853 2.00255 22.0188 2.07207 23.14C2.25695 26.1212 2.52259 28.9032 2.70611 29.78C3.51943 33.6653 6.75075 36.7338 10.6857 37.3574C11.5753 37.4984 14.6651 37.7803 16.94 37.928C18.0129 37.9977 21.9871 37.9977 23.06 37.928C25.3349 37.7803 28.4247 37.4984 29.3143 37.3574C32.9107 36.7874 35.9231 34.1938 37.0538 30.6939C37.3232 29.86 37.4217 29.2386 37.6171 27.14C37.9255 23.8271 37.9781 22.7857 37.9781 20C37.9781 17.5488 37.9548 16.9302 37.7779 14.7C37.5998 12.4546 37.435 10.9263 37.2977 10.2461C36.5151 6.37055 33.2569 3.26743 29.3143 2.64259C28.4831 2.51087 25.5588 2.23907 23.44 2.09659C22.5737 2.03835 18.6067 1.98531 18 2.02387ZM18.36 4.88351C15.9296 4.97143 11.887 5.32507 10.8112 5.54387C8.35251 6.04391 6.33215 7.92639 5.62123 10.3796C5.48475 10.8506 5.42331 11.2513 5.30223 12.46C4.83015 17.1737 4.74979 20.2757 5.00275 24.02C5.11207 25.6381 5.35711 28.2553 5.45975 28.9005C5.79175 30.9882 7.21503 32.9085 9.14555 33.8736C10.0023 34.302 10.6527 34.4748 11.96 34.6217C16.7597 35.161 20.1919 35.2614 24.14 34.9782C26.2671 34.8256 28.6873 34.5724 29.28 34.4405C31.7065 33.9006 33.6787 32.0363 34.3787 29.6204C34.5163 29.1458 34.5782 28.7412 34.6972 27.54C35.2341 22.1182 35.2716 19.0017 34.858 14.18C34.7519 12.9437 34.6006 11.4754 34.5405 11.0995C34.2087 9.02379 32.7944 7.10483 30.8855 6.14063C29.9788 5.68263 29.2706 5.50399 27.72 5.34219C23.6913 4.92183 20.9775 4.78883 18.36 4.88351ZM28.7736 8.92383C28.3315 8.99767 27.9573 9.20248 27.6387 9.54508C27.4061 9.79524 27.3081 9.95831 27.1971 10.28C27.0792 10.6219 27.0687 11.264 27.1751 11.62C27.3861 12.3254 27.9701 12.8731 28.6692 13.0212C30.2879 13.3642 31.5642 12.0879 31.2212 10.4692C30.9935 9.39483 29.9392 8.72911 28.7736 8.92383ZM19.32 12.802C17.4235 12.9212 15.9705 13.5063 14.8048 14.6198C13.7138 15.6619 13.0873 16.9759 12.8593 18.7C12.7746 19.3406 12.7746 20.6594 12.8593 21.3C13.0873 23.0241 13.7138 24.3381 14.8048 25.3802C16.1125 26.6294 17.7576 27.2082 20 27.2082C20.9175 27.2082 21.5819 27.1325 22.3436 26.941C24.3653 26.4327 25.9132 25.089 26.6761 23.18C27.2942 21.6334 27.3975 19.3943 26.9335 17.6005C26.5127 15.9739 25.4944 14.6041 24.08 13.762C22.8629 13.0374 21.131 12.688 19.32 12.802ZM19.36 15.6642C17.4428 15.8962 16.4195 16.6227 15.9231 18.1043C15.7315 18.6761 15.666 19.1583 15.6655 20C15.6649 21.1395 15.8497 21.9562 16.2636 22.6429C16.8088 23.5472 17.6889 24.0799 18.98 24.2869C19.4531 24.3628 20.6901 24.35 21.16 24.2643C21.9211 24.1256 22.5169 23.8766 22.9899 23.4998C23.5058 23.0887 23.8466 22.5844 24.0786 21.8889C24.2784 21.2899 24.3357 20.8693 24.3357 20C24.3357 18.9325 24.1941 18.2215 23.8431 17.5263C23.5741 16.9934 22.9886 16.4123 22.4495 16.1432C22.1399 15.9887 21.5899 15.8141 21.18 15.7403C20.8344 15.678 19.6536 15.6286 19.36 15.6642Z" fill="#DFAF37"/>
</svg>
