<svg width="40" height="40" viewBox="0 0 40 40" fill="none" xmlns="http://www.w3.org/2000/svg">
<path fill-rule="evenodd" clip-rule="evenodd" d="M6.71997 2.02764C6.64297 2.03572 6.38625 2.07844 6.14945 2.12252C4.03633 2.516 2.54553 4.00436 2.11733 6.14808C1.95357 6.96796 1.96629 8.32076 2.14525 9.12008C2.60853 11.1892 4.04937 12.5973 6.13213 13.0164C6.70013 13.1307 7.51625 13.1731 8.15853 13.1216C9.66721 13.0008 10.738 12.546 11.6419 11.642C12.5459 10.7381 13.0007 9.66732 13.1215 8.15864C13.2183 6.95036 13.0322 5.77276 12.598 4.84628C11.8623 3.2764 10.4319 2.29564 8.50709 2.0414C8.21673 2.00304 7.03949 1.99396 6.71997 2.02764ZM7.01997 4.88148C5.83689 5.0146 5.17457 5.5912 4.93101 6.70008C4.84421 7.09516 4.84729 8.04256 4.93673 8.46008C5.13417 9.38196 5.63945 9.91972 6.53997 10.1665C6.96885 10.284 8.10309 10.2955 8.53885 10.1867C9.42765 9.96488 9.96477 9.42776 10.1866 8.53896C10.2954 8.10328 10.2839 6.96904 10.1665 6.54008C10.0444 6.09436 9.90845 5.8354 9.65021 5.55648C9.38453 5.26948 8.94241 5.03832 8.47997 4.94452C8.08805 4.86508 7.42169 4.83628 7.01997 4.88148ZM6.80545 15.1634C4.84305 15.3818 3.14665 16.7551 2.52129 18.6316C2.24285 19.467 2.25997 18.9481 2.25997 26.5601C2.25997 32.8855 2.26533 33.4484 2.32889 33.7839C2.74617 35.9864 4.48033 37.6542 6.67465 37.9635C7.19001 38.0361 8.08817 37.9899 8.57997 37.8654C9.55333 37.619 10.376 37.1456 11.0528 36.4425C11.6963 35.774 12.1018 35.0328 12.3674 34.0401L12.4584 33.7001L12.4706 26.7601C12.4839 19.1382 12.4929 19.4539 12.2435 18.6908C11.6636 16.9164 10.2018 15.6022 8.40845 15.2432C7.93125 15.1477 7.25129 15.1138 6.80545 15.1634ZM25.92 15.1434C25.2627 15.1996 24.798 15.2594 24.3788 15.342C21.1635 15.9754 18.4075 17.9249 16.7155 20.7626C16.0729 21.8405 15.5933 23.1032 15.3419 24.379C15.1458 25.3745 15.14 25.5263 15.14 29.6401V33.5001L15.2304 33.9086C15.6552 35.827 17.0065 37.2835 18.8572 37.8178C19.5919 38.0299 20.6925 38.0573 21.4 37.8812C23.3754 37.3894 24.7925 35.9512 25.2637 33.9601C25.328 33.6882 25.3368 33.3158 25.3573 29.9801L25.38 26.3001L25.4723 26.0961C25.5879 25.8407 25.8407 25.59 26.0964 25.4773C26.3206 25.3784 26.6884 25.3588 26.94 25.4324C27.1808 25.5028 27.475 25.7498 27.616 26.0001L27.74 26.2201L27.7623 29.8401C27.787 33.845 27.7807 33.7445 28.055 34.551C28.5924 36.1313 29.8933 37.361 31.5109 37.8178C32.0485 37.9695 32.4591 38.0133 33.1147 37.9886C34.3998 37.9404 35.5142 37.4662 36.4424 36.5729C37.1408 35.9007 37.6044 35.098 37.8708 34.1001L37.9776 33.7001L37.9915 29.8601C38.0011 27.2045 37.9914 25.8659 37.9599 25.5201C37.6013 21.5784 35.2464 18.1319 31.689 16.3423C30.5151 15.7517 29.3544 15.3973 28.02 15.222C27.5512 15.1604 26.2788 15.1128 25.92 15.1434ZM6.82577 18.0634C6.01881 18.2588 5.29629 19.0247 5.16293 19.8262C5.12981 20.0254 5.12045 21.9111 5.12865 26.7401L5.13997 33.3801L5.24689 33.6552C5.85353 35.2166 7.79073 35.6464 8.95849 34.4786C9.22981 34.2073 9.41957 33.8977 9.54597 33.5201C9.61613 33.3105 9.62017 32.9886 9.63073 26.7431C9.64297 19.5113 9.65177 19.791 9.39509 19.2598C9.20125 18.8586 8.75909 18.4181 8.35997 18.2286C7.88017 18.0008 7.32953 17.9415 6.82577 18.0634ZM25.6443 18.0458C24.8727 18.1264 23.9497 18.3717 23.1864 18.6989C20.3307 19.9229 18.3552 22.6168 18.0419 25.7143C17.9832 26.2943 17.985 33.0836 18.0438 33.3681C18.1948 34.0974 18.7964 34.7725 19.5222 35.0272C19.8975 35.1588 20.4826 35.1748 20.86 35.0636C21.5979 34.8464 22.1776 34.2744 22.4243 33.5201C22.4907 33.317 22.4981 33.0137 22.5206 29.5801C22.5477 25.4464 22.5306 25.702 22.8275 25.0001C23.3235 23.8274 24.3538 22.9472 25.62 22.6144C26.0246 22.508 27.0984 22.5092 27.52 22.6164C28.2692 22.8069 28.8563 23.1386 29.4023 23.6801C29.9812 24.2542 30.3244 24.8441 30.5309 25.6201C30.614 25.9324 30.6166 26.0293 30.6385 29.6401L30.6609 33.3401L30.7508 33.6061C31.0084 34.368 31.7029 34.9644 32.499 35.1074C33.6334 35.3111 34.7199 34.6309 35.0664 33.5001C35.1356 33.2745 35.14 33.0382 35.14 29.5601C35.14 25.4772 35.1394 25.4663 34.8786 24.4547C33.8115 20.3163 29.8992 17.601 25.6443 18.0458Z" fill="white"/>
</svg>
